<?xml version="1.0" encoding="UTF-8" standalone="no"?>
<!-- Created with Inkscape (http://www.inkscape.org/) -->

<svg
   xmlns:dc="http://purl.org/dc/elements/1.1/"
   xmlns:cc="http://creativecommons.org/ns#"
   xmlns:rdf="http://www.w3.org/1999/02/22-rdf-syntax-ns#"
   xmlns:svg="http://www.w3.org/2000/svg"
   xmlns="http://www.w3.org/2000/svg"
   xmlns:sodipodi="http://sodipodi.sourceforge.net/DTD/sodipodi-0.dtd"
   xmlns:inkscape="http://www.inkscape.org/namespaces/inkscape"
   width="241.96243mm"
   height="81.312943mm"
   viewBox="0 0 241.96243 81.312942"
   version="1.1"
   id="svg8"
   inkscape:version="0.92.2 (5c3e80d, 2017-08-06)"
   sodipodi:docname="it-park-logo.svg">
  <defs
     id="defs2" />
  <sodipodi:namedview
     id="base"
     pagecolor="#ffffff"
     bordercolor="#666666"
     borderopacity="1.0"
     inkscape:pageopacity="0.0"
     inkscape:pageshadow="2"
     inkscape:zoom="0.98994949"
     inkscape:cx="225.79073"
     inkscape:cy="141.40438"
     inkscape:document-units="mm"
     inkscape:current-layer="layer1"
     showgrid="false"
     inkscape:window-width="1920"
     inkscape:window-height="1017"
     inkscape:window-x="-8"
     inkscape:window-y="-8"
     inkscape:window-maximized="1" />
  <metadata
     id="metadata5">
    <rdf:RDF>
      <cc:Work
         rdf:about="">
        <dc:format>image/svg+xml</dc:format>
        <dc:type
           rdf:resource="http://purl.org/dc/dcmitype/StillImage" />
        <dc:title />
      </cc:Work>
    </rdf:RDF>
  </metadata>
  <g
     inkscape:label="Layer 1"
     inkscape:groupmode="layer"
     id="layer1"
     transform="translate(-188.09985,-165.78615)">
    <g
       id="g840"
       transform="translate(3.4017857,-1.3229167)" />
    <path
       inkscape:connector-curvature="0"
       id="path837"
       d="m 193.25922,237.86625 -5.15937,-5.16201 v -33.39319 -33.3932 l 33.3375,-0.0659 33.3375,-0.0658 5.2235,5.23345 5.22349,5.23346 0.004,32.9324 c 0.002,18.11282 0.003,33.14076 0.002,33.39542 -0.002,0.43856 -1.76685,0.46261 -33.40567,0.45521 l -33.40374,-0.008 z m 60.32501,-5.20493 1.98437,-0.33305 0.0738,-3.50573 c 0.0571,-2.70912 -0.003,-3.50572 -0.26458,-3.50569 -0.18613,3e-5 -1.27217,0.17873 -2.41343,0.39711 -3.03655,0.58106 -7.64761,0.78038 -9.89728,0.42784 -2.06004,-0.32283 -4.11802,-1.3732 -4.82875,-2.46454 -0.33512,-0.51459 -0.40873,-2.49274 -0.47311,-12.7141 l -0.0763,-12.10468 h 8.61674 8.61673 l -0.0738,-3.50573 -0.0738,-3.50573 -8.46666,-0.0522 -8.46667,-0.0522 -0.13229,-3.51969 -0.13229,-3.5197 h -4.36563 -4.36562 l -0.0776,16.66875 c -0.0848,18.21874 0.064,21.37423 1.15637,24.51295 0.37236,1.06996 0.69443,2.14807 0.71571,2.3958 0.0213,0.24773 0.081,0.40816 0.13261,0.35651 0.0517,-0.0516 0.59169,0.44941 1.20007,1.11346 1.19999,1.30978 3.31868,2.41165 5.73638,2.98331 3.17663,0.75112 11.18491,0.71443 15.875,-0.0727 z m -32.27917,-20.44139 v -20.24062 h -11.37709 -11.37708 v 3.43519 3.43519 l 6.94531,0.0705 6.94532,0.0705 0.0681,16.73489 0.0681,16.7349 h 4.36365 4.36365 z m 0,-32.02113 v -4.63677 l -4.3231,-0.0218 -4.44122,0.0963 -0.002,4.63494 0.0221,4.56406 h 4.37187 4.37188 z"
       style="fill:#ea5a04;fill-opacity:1;stroke-width:0.26458332"
       sodipodi:nodetypes="ccccccccccccccccccccccccccccccccsccccccccccccccccccccccccccccc" />
    <path
       inkscape:connector-curvature="0"
       id="path837-6"
       d="m 273.07692,246.74959 c -0.19221,-0.19219 -0.34951,-12.57779 -0.34951,-27.52347 v -27.17395 h 12.74135 c 12.51197,0 12.78802,0.0233 15.33449,1.29864 3.15645,1.58075 5.69245,5.06964 6.90755,9.50304 0.99308,3.62342 1.09309,11.81538 0.1906,15.61142 -2.23854,9.41542 -9.66913,15.67198 -17.63623,14.84969 -2.83367,-0.29246 -6.36739,-1.79686 -7.54028,-3.21011 -0.3738,-0.45039 -0.88885,-0.68965 -1.1445,-0.53162 -0.25566,0.15791 -0.46486,4.16597 -0.46486,8.90658 v 8.61928 h -3.84452 c -2.11454,0 -4.00185,-0.15733 -4.19408,-0.3495 z m 21.6873,-20.97694 c 3.74131,-2.21003 5.97128,-10.72876 4.79282,-18.30893 -1.22411,-7.87392 -3.02487,-9.20735 -12.15046,-8.99719 l -6.02896,0.1389 -0.14088,11.61837 -0.14108,11.61837 1.94182,1.60062 c 1.06801,0.88032 2.66488,1.95742 3.54867,2.39353 2.15756,1.06473 6.32276,1.03235 8.17806,-0.0637 z m 23.83564,6.19344 c -1.15337,-0.52529 -2.96603,-1.91891 -4.0281,-3.09693 -4.42167,-4.90429 -3.92598,-11.45036 1.21721,-16.07451 3.38834,-3.04642 7.25261,-4.45193 14.34451,-5.2173 l 5.76684,-0.62237 -0.15438,-2.81097 c -0.28588,-5.20821 -1.99346,-6.60473 -7.93229,-6.48718 -3.62123,0.0719 -6.56129,0.8323 -11.70408,3.02814 -0.82316,0.35147 -0.91745,0.0179 -0.91745,-3.23839 v -3.63015 l 2.75234,-0.8554 c 11.37668,-3.53574 21.36828,-2.17305 24.50897,3.34262 1.27514,2.23934 1.31865,2.65687 1.60588,15.40815 0.16248,7.2085 0.48253,13.51926 0.71142,14.02384 0.30455,0.67139 1.0339,0.91745 2.71925,0.91745 h 2.30305 v 2.82229 c 0,3.22187 -0.32903,3.45045 -4.98042,3.45968 -2.93449,0.006 -5.57756,-1.29328 -6.59077,-3.23944 -0.34578,-0.66422 -0.68647,-1.27768 -0.75709,-1.36331 -0.0705,-0.0856 -1.19881,0.56675 -2.50712,1.44974 -1.30836,0.88298 -3.37155,1.9557 -4.58485,2.38377 -3.10119,1.09417 -9.15758,0.99141 -11.77298,-0.19973 z m 13.10638,-7.0787 c 4.11157,-1.93121 4.52878,-2.64847 4.34835,-7.47572 l -0.15438,-4.12712 -3.83981,0.0739 c -4.98721,0.0959 -8.18743,1.02471 -10.09159,2.92885 -1.26087,1.26087 -1.53415,1.97312 -1.53415,3.99845 0,2.68147 1.0111,4.59799 2.80844,5.32329 2.11822,0.85483 5.7697,0.54347 8.46306,-0.7216 z m 23.3294,-12.65134 v -20.18388 h 4.19407 4.19406 v 2.88227 2.88225 l 1.96596,-1.87655 c 1.08127,-1.03212 3.14552,-2.49497 4.58722,-3.25078 2.27876,-1.19462 3.27214,-1.37744 7.60174,-1.39888 2.73924,-0.0138 5.6292,0.15673 6.42213,0.37848 l 1.44172,0.40319 v 6.04397 6.04399 l -3.27661,-0.15614 -3.27658,-0.15613 v -2.6213 -2.62128 l -3.21717,0.0867 c -3.93733,0.1063 -5.91145,1.04975 -9.49608,4.53834 l -2.75233,2.67861 v 13.25537 13.2554 h -4.19406 -4.19407 z m 35.1252,-6.81533 v -26.99923 h 4.19405 4.19406 v 26.99923 26.9992 h -4.19406 -4.19405 z m 25.42643,23.40649 C 411.97973,224.7753 404.42804,216.38934 401.627,213.3246 l -1.9024,-2.08141 5.81301,-6.58106 c 3.19715,-3.61954 6.29441,-7.1559 6.88283,-7.85855 3.98757,-4.76176 3.83343,-4.67681 8.80267,-4.85191 2.52302,-0.0889 4.58727,-0.0916 4.58724,-0.006 -1.3e-4,0.27848 -14.928,17.14002 -15.33359,17.31983 -0.51072,0.22645 -0.51146,1.52067 -7.5e-4,1.74755 0.21626,0.096 2.3895,2.41595 4.82945,5.15519 2.43995,2.73924 5.74279,6.40261 7.3396,8.14083 1.59683,1.73822 3.91896,4.27431 5.16029,5.63576 l 2.25693,2.47536 -5.66458,-0.0298 -5.66463,-0.0296 -3.14554,-3.53299 z"
       style="fill:#6e6e6e;fill-opacity:1;stroke-width:0.52425647"
       sodipodi:nodetypes="cscscscsccscsccccccccscccccccccccscccccscscccccccccccsscccccccccccccccccccccccccccccccccccccccccccccccscccccc" />
  </g>
</svg>
